<?xml version="1.0" encoding="UTF-8"?>
<svg id="a" data-name="Layer 1" xmlns="http://www.w3.org/2000/svg" viewBox="0 0 114.011 116.386">
  <path d="M106.656,7.719c.877,11.953-8.428,20.306-17.536,26.212-1.498.971-13.246,7.395-14.12,7.044-.067-.027-.988-.959-1.025-1.039-.465-1.017,6.122-13.135,7.174-14.78,5.954-9.312,13.662-17.984,25.507-17.436Z" fill="#b397c7" stroke="#b397c7" stroke-miterlimit="10"/>
  <path d="M56.823.672c8.955,7.823,8.2,20.402,5.878,31.108-.382,1.761-4.21,14.727-5.073,15.105-.067.029-1.368.03-1.449,0-1.038-.386-4.83-13.678-5.234-15.595-2.283-10.854-2.88-22.513,5.878-30.619Z" fill="none" stroke="#231f20" stroke-miterlimit="10"/>
  <path d="M56.789,115.713c8.955-7.823,8.2-20.402,5.878-31.108-.382-1.761-4.21-14.727-5.073-15.105-.067-.029-1.368-.03-1.449,0-1.038.386-4.83,13.678-5.234,15.595-2.283,10.854-2.88,22.513,5.878,30.619Z" fill="none" stroke="#231f20" stroke-miterlimit="10"/>
  <path d="M97.126,98.665c.877-11.953-8.428-20.306-17.536-26.212-1.498-.971-13.246-7.395-14.12-7.044-.067.027-.988.959-1.025,1.039-.465,1.017,6.122,13.135,7.174,14.78,5.954,9.312,13.662,17.984,25.507,17.436Z" fill="none" stroke="#231f20" stroke-miterlimit="10"/>
  <path d="M16.797,99.176c-.877-11.953,8.428-20.306,17.536-26.212,1.498-.971,13.246-7.395,14.12-7.044.067.027.988.959,1.025,1.039.465,1.017-6.122,13.135-7.174,14.78-5.954,9.312-13.662,17.984-25.507,17.436Z" fill="none" stroke="#231f20" stroke-miterlimit="10"/>
  <path d="M17.131,17.456c-.877,11.953,8.428,20.306,17.536,26.212,1.498.971,13.246,7.395,14.12,7.044.067-.027.988-.959,1.025-1.039.465-1.017-6.122-13.135-7.174-14.78-5.954-9.312-13.662-17.984-25.507-17.436Z" fill="none" stroke="#231f20" stroke-miterlimit="10"/>
  <path d="M.664,58.229c7.715-9.081,20.12-8.315,30.678-5.96,1.736.387,14.523,4.269,14.896,5.144.029.067.03,1.387,0,1.47-.38,1.052-13.488,4.898-15.379,5.307-10.703,2.315-22.202,2.92-30.195-5.96Z" fill="none" stroke="#231f20" stroke-miterlimit="10"/>
  <path d="M113.346,57.698c-7.715-9.081-20.12-8.315-30.678-5.96-1.736.387-14.523,4.269-14.896,5.144-.029.067-.03,1.387,0,1.47.38,1.052,13.488,4.898,15.379,5.307,10.703,2.315,22.202,2.92,30.195-5.96Z" fill="none" stroke="#231f20" stroke-miterlimit="10"/>
</svg>