<?xml version="1.0" encoding="UTF-8"?>
<svg id="a" data-name="Layer 1" xmlns="http://www.w3.org/2000/svg" viewBox="0 0 580.664 127.243">
  <path d="M106.656,13.148c.877,11.953-8.428,20.306-17.536,26.212-1.498.971-13.246,7.395-14.12,7.044-.067-.027-.988-.959-1.025-1.039-.465-1.017,6.122-13.135,7.174-14.78,5.954-9.312,13.662-17.984,25.507-17.436Z" fill="#b397c7" stroke="#b397c7" stroke-miterlimit="10"/>
  <path d="M56.823,6.101c8.955,7.823,8.2,20.402,5.878,31.108-.382,1.761-4.21,14.727-5.073,15.105-.067.029-1.368.03-1.449,0-1.038-.386-4.83-13.678-5.234-15.595-2.283-10.854-2.88-22.513,5.878-30.619Z" fill="none" stroke="#fff" stroke-miterlimit="10"/>
  <path d="M56.789,121.142c8.955-7.823,8.2-20.402,5.878-31.108-.382-1.761-4.21-14.727-5.073-15.105-.067-.029-1.368-.03-1.449,0-1.038.386-4.83,13.678-5.234,15.595-2.283,10.854-2.88,22.513,5.878,30.619Z" fill="none" stroke="#fff" stroke-miterlimit="10"/>
  <path d="M97.126,104.094c.877-11.953-8.428-20.306-17.536-26.212-1.498-.971-13.246-7.395-14.12-7.044-.067.027-.988.959-1.025,1.039-.465,1.017,6.122,13.135,7.174,14.78,5.954,9.312,13.662,17.984,25.507,17.436Z" fill="none" stroke="#fff" stroke-miterlimit="10"/>
  <path d="M16.797,104.605c-.877-11.953,8.428-20.306,17.536-26.212,1.498-.971,13.246-7.395,14.12-7.044.067.027.988.959,1.025,1.039.465,1.017-6.122,13.135-7.174,14.78-5.954,9.312-13.662,17.984-25.507,17.436Z" fill="none" stroke="#fff" stroke-miterlimit="10"/>
  <path d="M17.131,22.884c-.877,11.953,8.428,20.306,17.536,26.212,1.498.971,13.246,7.395,14.12,7.044.067-.027.988-.959,1.025-1.039.465-1.017-6.122-13.135-7.174-14.78-5.954-9.312-13.662-17.984-25.507-17.436Z" fill="none" stroke="#fff" stroke-miterlimit="10"/>
  <path d="M.664,63.657c7.715-9.081,20.12-8.315,30.678-5.96,1.736.387,14.523,4.269,14.896,5.144.029.067.03,1.387,0,1.47-.38,1.052-13.488,4.898-15.379,5.307-10.703,2.315-22.202,2.92-30.195-5.96Z" fill="none" stroke="#fff" stroke-miterlimit="10"/>
  <path d="M113.346,63.126c-7.715-9.081-20.12-8.315-30.678-5.96-1.736.387-14.523,4.269-14.896,5.144-.029.067-.03,1.387,0,1.47.38,1.052,13.488,4.898,15.379,5.307,10.703,2.315,22.202,2.92,30.195-5.96Z" fill="none" stroke="#fff" stroke-miterlimit="10"/>
  <line x1="149.938" x2="149.938" y2="127.243" fill="none" stroke="#fff" stroke-miterlimit="10" stroke-width=".5"/>
  <g>
    <path d="M181.144,29.462h23.784c4.102,0,7.704.439,10.806,1.319,3.102.879,5.688,2.112,7.756,3.697,2.068,1.586,3.627,3.473,4.679,5.662,1.051,2.189,1.577,4.576,1.577,7.161,0,2.138-.405,4.136-1.215,5.998-.81,1.862-1.948,3.542-3.413,5.041-1.465,1.5-3.232,2.792-5.299,3.878-2.068,1.085-4.344,1.938-6.825,2.559l24.973,33.246h-13.392l-23.835-32.212h-8.066v32.212h-11.53V29.462ZM192.675,62.346h6.67c2.585,0,4.971-.344,7.161-1.034,2.189-.689,4.085-1.663,5.688-2.921,1.603-1.257,2.852-2.782,3.749-4.576.896-1.792,1.345-3.808,1.345-6.049,0-2.068-.354-3.964-1.061-5.688-.707-1.723-1.706-3.196-2.998-4.421-1.293-1.223-2.827-2.18-4.602-2.869-1.776-.69-3.715-1.034-5.817-1.034h-10.134v28.593Z" fill="#fff"/>
    <path d="M294.998,29.462v4.447h-36.141v24.508h24.198v4.447h-24.198v30.712h36.141v4.447h-47.672V29.462h47.672Z" fill="#fff"/>
    <path d="M330.985,95.282c1.688,0,3.361-.233,5.015-.698s3.136-1.155,4.447-2.069c1.31-.912,2.361-2.034,3.155-3.361.793-1.326,1.189-2.87,1.189-4.627,0-2.102-.543-3.972-1.629-5.61-1.086-1.637-2.507-3.136-4.266-4.498-1.757-1.361-3.765-2.645-6.023-3.852-2.258-1.206-4.558-2.412-6.902-3.619-2.345-1.206-4.645-2.473-6.903-3.801-2.258-1.326-4.265-2.809-6.023-4.447-1.758-1.637-3.18-3.464-4.266-5.48-1.085-2.017-1.628-4.335-1.628-6.954s.491-5.05,1.473-7.29c.983-2.24,2.421-4.179,4.318-5.817,1.895-1.637,4.231-2.921,7.007-3.852,2.774-.931,5.953-1.396,9.539-1.396,3.239,0,6.135.346,8.686,1.034,2.551.69,4.791,1.706,6.721,3.05,1.931,1.345,3.568,2.999,4.912,4.963,1.344,1.965,2.43,4.24,3.258,6.825l-5.895,2.689c-.69-2.102-1.568-4.024-2.636-5.765-1.069-1.74-2.345-3.231-3.826-4.472-1.484-1.241-3.199-2.198-5.145-2.87-1.949-.672-4.146-1.008-6.593-1.008-2.172,0-4.067.303-5.688.905s-2.973,1.395-4.059,2.378c-1.086.982-1.896,2.086-2.43,3.309-.535,1.224-.802,2.474-.802,3.749,0,1.793.551,3.438,1.655,4.938,1.103,1.499,2.568,2.913,4.394,4.24,1.828,1.327,3.904,2.61,6.231,3.851s4.696,2.5,7.109,3.775c2.413,1.276,4.784,2.603,7.109,3.981,2.327,1.379,4.403,2.888,6.231,4.524,1.826,1.637,3.292,3.431,4.396,5.377,1.101,1.948,1.654,4.128,1.654,6.54,0,2.723-.518,5.283-1.551,7.678-1.034,2.396-2.585,4.482-4.654,6.256-2.067,1.777-4.636,3.18-7.703,4.214-3.069,1.035-6.637,1.551-10.704,1.551-3.309,0-6.256-.361-8.841-1.086-2.585-.723-4.869-1.774-6.851-3.153-1.982-1.378-3.679-3.059-5.093-5.042-1.414-1.981-2.569-4.248-3.464-6.798l6.153-2.534c.723,2.241,1.697,4.239,2.921,5.998,1.223,1.757,2.645,3.249,4.267,4.472,1.619,1.224,3.42,2.163,5.403,2.818,1.981.656,4.093.983,6.334.983Z" fill="#fff"/>
    <path d="M405.542,99.625c-5.308,0-10.263-.948-14.864-2.843-4.602-1.895-8.601-4.489-11.996-7.782-3.396-3.292-6.067-7.135-8.015-11.53-1.948-4.394-2.921-9.091-2.921-14.089,0-3.274.44-6.428,1.319-9.462.879-3.033,2.128-5.86,3.749-8.479,1.619-2.62,3.575-5.007,5.868-7.161,2.292-2.154,4.834-3.998,7.627-5.533,2.791-1.533,5.808-2.723,9.048-3.567,3.239-.844,6.634-1.267,10.185-1.267s6.944.423,10.185,1.267c3.241.845,6.264,2.034,9.074,3.567,2.809,1.534,5.353,3.379,7.627,5.533,2.276,2.155,4.231,4.542,5.87,7.161,1.636,2.62,2.894,5.447,3.774,8.479.88,3.034,1.317,6.188,1.317,9.462,0,3.309-.437,6.507-1.317,9.591-.88,3.086-2.138,5.972-3.774,8.661-1.639,2.688-3.593,5.136-5.87,7.342-2.273,2.206-4.818,4.103-7.627,5.688s-5.833,2.809-9.074,3.671c-3.241.86-6.634,1.292-10.185,1.292ZM405.542,96.213c3.929,0,7.401-.819,10.419-2.457,3.015-1.636,5.557-3.921,7.627-6.851,2.067-2.929,3.627-6.393,4.679-10.392,1.049-3.998,1.577-8.376,1.577-13.133,0-4.722-.527-9.048-1.577-12.977-1.052-3.93-2.612-7.317-4.679-10.16-2.07-2.843-4.612-5.049-7.627-6.618-3.018-1.568-6.49-2.352-10.419-2.352-3.998,0-7.506.784-10.522,2.352-3.017,1.569-5.549,3.775-7.6,6.618-2.051,2.844-3.593,6.231-4.627,10.16-1.035,3.929-1.551,8.256-1.551,12.977,0,4.757.516,9.135,1.551,13.133,1.034,3.999,2.577,7.463,4.627,10.392,2.051,2.931,4.583,5.215,7.6,6.851,3.017,1.637,6.524,2.457,10.522,2.457Z" fill="#fff"/>
    <path d="M457.867,29.462h11.53v44.518c0,2.93.499,5.679,1.499,8.247s2.43,4.817,4.291,6.747,4.111,3.455,6.747,4.575c2.637,1.121,5.576,1.681,8.816,1.681,3.275,0,6.222-.56,8.842-1.681,2.619-1.12,4.851-2.644,6.695-4.575,1.845-1.931,3.258-4.18,4.241-6.747.982-2.567,1.474-5.317,1.474-8.247V29.462h5.066v44.518c0,3.516-.568,6.825-1.705,9.927-1.138,3.103-2.922,5.816-5.352,8.143s-5.541,4.172-9.333,5.533c-3.791,1.361-8.342,2.042-13.649,2.042-4.723,0-8.903-.681-12.539-2.042-3.637-1.361-6.688-3.214-9.151-5.558-2.465-2.344-4.327-5.093-5.585-8.247s-1.887-6.523-1.887-10.108V29.462Z" fill="#fff"/>
    <path d="M534.596,29.462h11.53v64.114h34.538v4.447h-46.068V29.462Z" fill="#fff"/>
  </g>
</svg>